<svg width="16" height="16" viewBox="0 0 16 16" fill="none" xmlns="http://www.w3.org/2000/svg">
<path d="M8.01391 0.277344C3.87187 0.277344 0.513916 3.6353 0.513916 7.77737C0.513916 11.9194 3.87187 15.2774 8.01391 15.2774C12.156 15.2774 15.5139 11.9194 15.5139 7.77737C15.5139 3.6353 12.156 0.277344 8.01391 0.277344ZM8.01391 1.64098C11.4029 1.64098 14.1503 4.38837 14.1503 7.77737C14.1503 11.1663 11.4029 13.9137 8.01391 13.9137C4.62494 13.9137 1.87755 11.1663 1.87755 7.77737C1.87755 4.38837 4.62494 1.64098 8.01391 1.64098ZM8.01391 2.3228C7.63755 2.3228 7.33209 2.62791 7.33209 3.00462V7.09555H3.92301C3.5463 7.09555 3.24119 7.40101 3.24119 7.77737C3.24119 8.15373 3.5463 8.45919 3.92301 8.45919H8.01391C8.39028 8.45919 8.69573 8.15405 8.69573 7.77737V3.00462C8.69573 2.62791 8.39028 2.3228 8.01391 2.3228Z" fill="#9AA0A6"/>
</svg>
