<svg width="16" height="16" viewBox="0 0 16 16" fill="none" xmlns="http://www.w3.org/2000/svg">
<path d="M15.2775 13.8999L11.0062 9.62931C12.734 7.34417 12.5581 4.06864 10.4759 1.98681C9.93387 1.44485 9.29039 1.01493 8.58218 0.721622C7.87398 0.42831 7.11493 0.277344 6.34837 0.277344C5.58181 0.277344 4.82275 0.42831 4.11455 0.721622C3.40635 1.01493 2.76287 1.44485 2.22085 1.98681C-0.0550625 4.2623 -0.0550625 7.96472 2.22085 10.2402C3.21663 11.2359 4.53891 11.8381 5.94385 11.9357C7.34879 12.0332 8.74164 11.6196 9.86555 10.7712L14.1362 15.041C14.2875 15.1923 14.4928 15.2773 14.7069 15.2773C14.9209 15.2773 15.1262 15.1923 15.2775 15.041C15.4289 14.8897 15.5139 14.6844 15.5139 14.4704C15.5139 14.2564 15.4289 14.0512 15.2775 13.8999ZM2.98427 9.47694C1.1294 7.6223 1.1294 4.60472 2.98427 2.75009C3.87649 1.85804 5.08659 1.3569 6.34837 1.3569C7.61015 1.3569 8.82025 1.85804 9.71247 2.75009C11.5673 4.60472 11.5673 7.6223 9.71247 9.47694C8.82025 10.369 7.61015 10.8701 6.34837 10.8701C5.08659 10.8701 3.87649 10.369 2.98427 9.47694Z" fill="#9AA0A6"/>
</svg>
